<svg id="ac852141-3993-493d-8358-a9a33a000d3a" data-name="Layer 1" xmlns="http://www.w3.org/2000/svg" viewBox="0 0 727.59 272.47"><defs><style>.\38 32a2bb1-34b8-49c6-a875-9d4db99691dc{fill:#fff;}</style></defs><title>logo</title><path class="832a2bb1-34b8-49c6-a875-9d4db99691dc" d="M352,343.14c-10.59,0-21.38-.22-21.85-14.49H289.78c0.3,28.15,13.65,37.34,38.3,39.3,7.46,0.6,15.56.56,23.9,0.56,33.92,0,62.08-5.66,62.21-42.32v-0.58c-0.12-34.77-18.47-37.27-62.23-38.25-21.78-.49-23.08-5.06-23.08-12.3,0-8.55.95-11.29,23.1-11.29,8.11,0,16.23.72,18.05,10.82h38V269.4c0-30.56-32.05-31-56.07-31-36.08,0-62.2.8-62.2,41.32,0,25.47,8.79,37.37,62.2,37.37,4.84,0,12.49-.25,17,1.69,4.18,1.81,6.12,5.46,6.12,12.08C375.09,342,371,343.14,352,343.14Z" transform="translate(-60.75 -166.55)"/><path class="832a2bb1-34b8-49c6-a875-9d4db99691dc" d="M771,211.6c-16.08-26.42-46.87-45-83-45H161.1c-36.14,0-66.94,18.63-83,45-14.19,24.6-17.33,64.65-17.33,91.19S63.88,369.38,78.07,394C94.16,420.38,125,439,161.1,439H688c36.17,0,67-18.64,83-45.06,14.2-24.58,17.32-64.64,17.32-91.18S785.21,236.2,771,211.6ZM439.49,415.06H167.82c-21.08,0-45.67-10.31-58.48-24.08C89.12,369.26,84.7,335.2,84.7,302.79s4.42-66.5,24.64-88.22c12.8-13.75,37.39-24,58.48-24.07H439.49V415.06ZM595.6,308.4H511.76v1.39c0,22.85,3.63,30.65,22.28,30.65,12.56,0,22.14-1.4,22.73-15h38.8c-0.29,18.18-6.46,28.35-16.73,34.29-10.7,6-26.12,7.45-44.8,7.45-49.63,0-61.64-16.7-61.83-63.42v-3.43c0.35-47.2,11.65-62.4,61.83-62.4,47.62,0,61.55,12.85,61.55,64.74v5.75Zm124.5-41H690.63v99.63H650.28V267.44H620.82v-29H720.1v29Z" transform="translate(-60.75 -166.55)"/><path class="832a2bb1-34b8-49c6-a875-9d4db99691dc" d="M533.28,264.65c-17.76,0-21.06,5.75-21.58,23.16h44.36v-1.38C556.06,266.15,547.92,264.65,533.28,264.65Z" transform="translate(-60.75 -166.55)"/><path class="832a2bb1-34b8-49c6-a875-9d4db99691dc" d="M138.89,302.33v1.77C139,351.44,151,368.5,201.1,368.5c18.69,0,34.17-1.49,45-7.5,10.5-6.06,16.74-16.49,17-35.07h-39.6c-0.43,13.61-9.66,15-22.36,15-18.31,0-21.87-7.45-21.87-30.22v-1h83.84v-6.17c0-52.1-14.1-65.16-62-65.16C150.28,238.41,139.08,254.09,138.89,302.33ZM200.35,266c14.55,0,22.37,1.43,22.37,21.37v1h-43.5C179.7,271.26,183.17,266,200.35,266Z" transform="translate(-60.75 -166.55)"/></svg>